HIERARCHY
ROOT hip
{
  OFFSET 0 0 0
  CHANNELS 6 Xposition Yposition Zposition Zrotation Yrotation Xrotation
  JOINT abdomen
  {
    OFFSET 0 20.6881 -0.73152
    CHANNELS 3 Zrotation Xrotation Yrotation
    JOINT chest
    {
      OFFSET 0 11.7043 -0.48768
      CHANNELS 3 Zrotation Xrotation Yrotation
      JOINT neck
      {
        OFFSET 0 22.1894 -2.19456
        CHANNELS 3 Zrotation Xrotation Yrotation
        JOINT head
        {
          OFFSET -0.24384 7.07133 1.2192
          CHANNELS 3 Zrotation Xrotation Yrotation
          JOINT leftEye
          {
            OFFSET 4.14528 8.04674 8.04672
            CHANNELS 3 Zrotation Xrotation Yrotation
            End Site
            {
              OFFSET 1 0 0
            }
          }
          JOINT rightEye
          {
            OFFSET -3.6576 8.04674 8.04672
            CHANNELS 3 Zrotation Xrotation Yrotation
            End Site
            {
              OFFSET 1 0 0
            }
          }
        }
      }
      JOINT rCollar
      {
        OFFSET -2.68224 19.2634 -4.8768
        CHANNELS 3 Zrotation Xrotation Yrotation
        JOINT rShldr
        {
          OFFSET -8.77824 -1.95073 1.46304
          CHANNELS 3 Zrotation Xrotation Yrotation
          JOINT rForeArm
          {
            OFFSET -28.1742 -1.7115 0.48768
            CHANNELS 3 Zrotation Xrotation Yrotation
            JOINT rHand
            {
              OFFSET -22.5879 0.773209 7.07136
              CHANNELS 3 Zrotation Xrotation Yrotation
              JOINT rThumb1
              {
                OFFSET -1.2192 -0.487915 3.41376
                CHANNELS 3 Zrotation Xrotation Yrotation
                JOINT rThumb2
                {
                  OFFSET -3.37035 -0.52449 3.41376
                  CHANNELS 3 Zrotation Xrotation Yrotation
                  End Site
                  {
                    OFFSET -1.78271 -1.18214 1.43049
                  }
                }
              }
              JOINT rIndex1
              {
                OFFSET -7.75947 0.938293 5.60832
                CHANNELS 3 Zrotation Xrotation Yrotation
                JOINT rIndex2
                {
                  OFFSET -2.54057 -0.884171 1.56538
                  CHANNELS 3 Zrotation Xrotation Yrotation
                  End Site
                  {
                    OFFSET -1.62519 -0.234802 1.16502
                  }
                }
              }
              JOINT rMid1
              {
                OFFSET -8.24714 1.18213 3.41376
                CHANNELS 3 Zrotation Xrotation Yrotation
                JOINT rMid2
                {
                  OFFSET -3.10165 -0.590103 1.0647
                  CHANNELS 3 Zrotation Xrotation Yrotation
                  End Site
                  {
                    OFFSET -2.48547 -0.328903 0.83742
                  }
                }
              }
              JOINT rRing1
              {
                OFFSET -8.82822 0.546677 1.51678
                CHANNELS 3 Zrotation Xrotation Yrotation
                JOINT rRing2
                {
                  OFFSET -2.60934 -0.819778 -0.0198488
                  CHANNELS 3 Zrotation Xrotation Yrotation
                  End Site
                  {
                    OFFSET -2.33842 -0.294052 0.168128
                  }
                }
              }
              JOINT rPinky1
              {
                OFFSET -8.27202 -0.0477905 -0.4584
                CHANNELS 3 Zrotation Xrotation Yrotation
                JOINT rPinky2
                {
                  OFFSET -1.82734 -0.647385 -0.700984
                  CHANNELS 3 Zrotation Xrotation Yrotation
                  End Site
                  {
                    OFFSET -1.69225 -0.51767 -0.607171
                  }
                }
              }
            }
          }
        }
      }
      JOINT lCollar
      {
        OFFSET 2.68224 19.2634 -4.8768
        CHANNELS 3 Zrotation Xrotation Yrotation
        JOINT lShldr
        {
          OFFSET 8.77824 -1.95073 1.46304
          CHANNELS 3 Zrotation Xrotation Yrotation
          JOINT lForeArm
          {
            OFFSET 28.1742 -1.7115 0.48768
            CHANNELS 3 Zrotation Xrotation Yrotation
            JOINT lHand
            {
              OFFSET 22.5879 0.773209 7.07136
              CHANNELS 3 Zrotation Xrotation Yrotation
              JOINT lThumb1
              {
                OFFSET 1.2192 -0.487915 3.41376
                CHANNELS 3 Zrotation Xrotation Yrotation
                JOINT lThumb2
                {
                  OFFSET 3.37035 -0.52449 3.41376
                  CHANNELS 3 Zrotation Xrotation Yrotation
                  End Site
                  {
                    OFFSET 1.78271 -1.18214 1.43049
                  }
                }
              }
              JOINT lIndex1
              {
                OFFSET 7.75947 0.938293 5.60832
                CHANNELS 3 Zrotation Xrotation Yrotation
                JOINT lIndex2
                {
                  OFFSET 2.54057 -0.884171 1.56538
                  CHANNELS 3 Zrotation Xrotation Yrotation
                  End Site
                  {
                    OFFSET 1.62519 -0.234802 1.16502
                  }
                }
              }
              JOINT lMid1
              {
                OFFSET 8.24714 1.18213 3.41376
                CHANNELS 3 Zrotation Xrotation Yrotation
                JOINT lMid2
                {
                  OFFSET 3.10165 -0.590103 1.0647
                  CHANNELS 3 Zrotation Xrotation Yrotation
                  End Site
                  {
                    OFFSET 2.48547 -0.328903 0.83742
                  }
                }
              }
              JOINT lRing1
              {
                OFFSET 8.82822 0.546677 1.51678
                CHANNELS 3 Zrotation Xrotation Yrotation
                JOINT lRing2
                {
                  OFFSET 2.60934 -0.819778 -0.0198488
                  CHANNELS 3 Zrotation Xrotation Yrotation
                  End Site
                  {
                    OFFSET 2.33842 -0.294052 0.168128
                  }
                }
              }
              JOINT lPinky1
              {
                OFFSET 8.27202 -0.0477905 -0.4584
                CHANNELS 3 Zrotation Xrotation Yrotation
                JOINT lPinky2
                {
                  OFFSET 1.82734 -0.647385 -0.700984
                  CHANNELS 3 Zrotation Xrotation Yrotation
                  End Site
                  {
                    OFFSET 1.69225 -0.51767 -0.607171
                  }
                }
              }
            }
          }
        }
      }
    }
  }
  JOINT rButtock
  {
    OFFSET -8.77824 4.35084 1.2192
    CHANNELS 3 Zrotation Xrotation Yrotation
    JOINT rThigh
    {
      OFFSET 0 -1.70687 -2.19456
      CHANNELS 3 Zrotation Xrotation Yrotation
      JOINT rShin
      {
        OFFSET 0 -36.8199 0.73152
        CHANNELS 3 Zrotation Xrotation Yrotation
        JOINT rFoot
        {
          OFFSET 0.73152 -45.1104 -5.12064
          CHANNELS 3 Zrotation Xrotation Yrotation
          End Site
          {
            OFFSET -1.1221 -3.69964 12.103
          }
        }
      }
    }
  }
  JOINT lButtock
  {
    OFFSET 8.77824 4.35084 1.2192
    CHANNELS 3 Zrotation Xrotation Yrotation
    JOINT lThigh
    {
      OFFSET 0 -1.70687 -2.19456
      CHANNELS 3 Zrotation Xrotation Yrotation
      JOINT lShin
      {
        OFFSET 0 -36.8199 0.73152
        CHANNELS 3 Zrotation Xrotation Yrotation
        JOINT lFoot
        {
          OFFSET -0.73152 -45.1104 -5.12064
          CHANNELS 3 Zrotation Xrotation Yrotation
          End Site
          {
            OFFSET 1.1221 -3.69964 12.103
          }
        }
      }
    }
  }
}
MOTION
Frames:	4
Frame Time:	0.00833333
0.388524 82.4855 50.1211 0.0 0.0 0.0 -4.35904 0.00629598 -0.117466 -1.20169 0.0324834 -0.207699 -1.26213e-13 0.0 2.23633e-15 -3.75846e-13 3.18055e-15 7.15314e-15 -0.0 0.0 0.0 -0.0 0.0 0.0 -6.25761e-14 -9.09285e-16 1.3418e-15 -1.31922e-12 -1.96859e-14 2.04748e-14 -2.27174e-11 6.13907e-12 6.83819e-13 -2.59859e-10 -1.02199e-11 4.26512e-12 -6.12974e-10 -8.84273e-12 1.08012e-11 -1.05857e-09 -1.52667e-11 1.86619e-11 -6.12968e-10 -8.84115e-12 1.07916e-11 7.73091 5.47488 0.417314 -6.12974e-10 -8.84274e-12 1.07948e-11 2.90554 0.965183 0.102902 -6.12959e-10 -8.84204e-12 1.07932e-11 10.2786 0.731801 0.0259123 -6.12977e-10 -8.83956e-12 1.07916e-11 2.22167 -0.733487 -0.20892 -6.26624e-14 -9.05208e-16 1.14301e-15 -1.32182e-12 -1.91641e-14 1.90833e-14 -2.27078e-11 -7.42103e-12 6.61555e-13 -2.59831e-10 3.35457e-12 4.30011e-12 -6.12893e-10 -8.81886e-12 1.08012e-11 -1.05843e-09 -1.52317e-11 1.86905e-11 -6.12897e-10 -8.8161e-12 1.08107e-11 -7.73091 5.47488 -0.417314 -6.12894e-10 -8.81819e-12 1.08075e-11 -2.90554 0.965183 -0.102902 -6.12903e-10 -8.81839e-12 1.08099e-11 -10.2786 0.731801 -0.0259123 -6.12892e-10 -8.81928e-12 1.08043e-11 -2.22167 -0.733487 0.20892 -2.03217e-16 0.0 -3.88251e-19 -2.89228 -1.94436 0.0304835 -0.00794354 -2.07875 -0.0648356 -0.41817 4.00219 0.126511 2.03217e-16 0.0 3.88251e-19 -3.72535 -11.2507 0.483797 -0.0143128 14.7726 -0.388794 0.544805 -3.54244 0.0125124
-1.4081 82.2225 48.1664 -6.3204 -3.2488 8.6394 -3.38829 -2.85332 0.0903803 -1.17611 -3.26188 -0.213542 -2.69158 2.30138 -3.13592 4.51461 1.18612 -6.14314 -0.0 0.0 0.0 -0.0 0.0 0.0 -2.67667e-14 -3.31759e-15 2.80581e-14 22.7207 -5.9924 -2.77081 -3.17597 -1.2836 5.12027 0.438586 14.7849 1.83671 7.7002e-11 -1.86014e-10 -6.17073e-10 1.01901e-10 -3.06595e-10 -1.08603e-09 7.70069e-11 -1.86013e-10 -6.17082e-10 7.73091 5.47488 0.417314 7.70011e-11 -1.86014e-10 -6.17077e-10 2.90554 0.965183 0.102902 7.70128e-11 -1.86014e-10 -6.17079e-10 10.2786 0.731801 0.0259123 7.6997e-11 -1.86012e-10 -6.17077e-10 2.22167 -0.733487 -0.20892 -2.68308e-14 -3.31812e-15 2.78912e-14 -23.5869 -2.07603 3.20951 3.05225 -1.21503 -4.93764 -0.169249 9.14834 -1.22733 -1.02005e-09 -2.37309e-10 4.94756e-10 -1.74772e-09 -3.9228e-10 8.70459e-10 -1.02005e-09 -2.37308e-10 4.94766e-10 -7.73091 5.47488 -0.417314 -1.02005e-09 -2.37309e-10 4.94761e-10 -2.90554 0.965183 -0.102902 -1.02006e-09 -2.3731e-10 4.94763e-10 -10.2786 0.731801 -0.0259123 -1.02005e-09 -2.3731e-10 4.94758e-10 -2.22167 -0.733487 0.20892 -2.03217e-16 0.0 -3.88251e-19 -2.72231 -3.16949 7.02871 0.00911849 -1.86958 0.0624723 -0.882406 1.41361 -7.0007 2.03217e-16 0.0 3.88251e-19 -4.33119 -10.4464 -12.8826 0.0226993 14.7288 -0.0570148 2.26622 -14.1393 16.187
-1.41691 82.2211 48.1622 -6.364 -3.2312 8.6618 -2.344 -5.86951 0.308957 -1.14423 -6.73304 -0.220427 -5.26454 4.7062 -6.46664 9.56477 2.38494 -12.6411 -0.0 0.0 0.0 -0.0 0.0 0.0 1.3705e-14 -7.74894e-15 6.11387e-14 46.096 -12.2742 -5.78777 -6.28688 -2.60746 10.5443 -0.27694 30.3734 4.23658 8.07569e-10 -3.70583e-10 -1.30328e-09 1.3297e-09 -6.10779e-10 -2.29269e-09 8.07573e-10 -3.70583e-10 -1.30329e-09 7.73091 5.47488 0.417314 8.07568e-10 -3.70583e-10 -1.30328e-09 2.90554 0.965183 0.102902 8.07576e-10 -3.70585e-10 -1.30329e-09 10.2786 0.731801 0.0259123 8.07563e-10 -3.70583e-10 -1.30328e-09 2.22167 -0.733487 -0.20892 1.36661e-14 -7.75473e-15 6.10083e-14 -48.2741 -4.27532 6.60476 6.05281 -2.46981 -10.1656 0.0999084 18.8183 -2.63517 -1.47475e-09 -5.01206e-10 1.01154e-09 -2.51805e-09 -8.28813e-10 1.78057e-09 -1.47476e-09 -5.01206e-10 1.01155e-09 -7.73091 5.47488 -0.417314 -1.47475e-09 -5.01206e-10 1.01154e-09 -2.90554 0.965183 -0.102902 -1.47476e-09 -5.01208e-10 1.01155e-09 -10.2786 0.731801 -0.0259123 -1.47475e-09 -5.01208e-10 1.01154e-09 -2.22167 -0.733487 0.20892 -2.03217e-16 0.0 -3.88251e-19 -2.22323 -4.3702 14.4524 0.0262012 -1.64612 0.19713 -2.06659 -1.25854 -14.5342 2.03217e-16 0.0 3.88251e-19 -4.56178 -9.05511 -26.9146 0.0624074 14.6831 0.2936 10.6368 -22.1655 35.1827
-1.42 82.2203 48.1633 -6.3831 -3.2047 8.6546 -1.38402 -8.57224 0.511451 -1.12719 -9.8506 -0.227544 -7.3182 6.82119 -9.46779 14.2934 3.3952 -18.459 -0.0 0.0 0.0 -0.0 0.0 0.0 4.4852e-14 -8.13421e-15 8.14908e-14 66.3559 -17.8048 -8.68598 -8.84758 -3.72797 15.3903 -2.46884 44.1349 7.43334 1.45695e-09 -5.40356e-10 -1.87282e-09 2.42285e-09 -8.89252e-10 -3.2954e-09 1.45696e-09 -5.40357e-10 -1.87283e-09 7.73091 5.47488 0.417314 1.45695e-09 -5.40356e-10 -1.87282e-09 2.90554 0.965183 0.102902 1.45696e-09 -5.40358e-10 -1.87282e-09 10.2786 0.731801 0.0259123 1.45695e-09 -5.40357e-10 -1.87282e-09 2.22167 -0.733487 -0.20892 4.48323e-14 -8.14396e-15 8.13876e-14 -70.0631 -6.14976 9.67844 8.53526 -3.53698 -14.8385 0.79322 27.3913 -4.09491 -1.83435e-09 -6.9429e-10 1.46267e-09 -3.12631e-09 -1.14638e-09 2.574e-09 -1.83436e-09 -6.94292e-10 1.46268e-09 -7.73091 5.47488 -0.417314 -1.83435e-09 -6.9429e-10 1.46267e-09 -2.90554 0.965183 -0.102902 -1.83436e-09 -6.94292e-10 1.46267e-09 -10.2786 0.731801 -0.0259123 -1.83435e-09 -6.94292e-10 1.46266e-09 -2.22167 -0.733487 0.20892 -2.03217e-16 0.0 -3.88251e-19 -1.50714 -5.31269 21.0876 0.0404531 -1.45122 0.317005 -3.70331 -3.47773 -21.2892 2.03217e-16 0.0 3.88251e-19 -4.31656 -7.47381 -39.3434 0.0983091 14.6398 0.606141 22.421 -24.2252 53.3523
